<svg width="725" height="708" viewBox="0 0 725 708" fill="none" xmlns="http://www.w3.org/2000/svg">
<path d="M652.106 365.585C653.983 365.616 656.054 365.55 657.437 364.225C659.087 362.645 659.073 359.972 658.937 357.637C658.369 347.928 657.801 338.219 657.234 328.51C657.064 325.616 656.752 322.4 654.668 320.483C655.072 331.139 655.476 341.795 655.879 352.45C655.948 354.256 655.955 356.254 654.822 357.618C653.35 359.389 650.731 359.247 648.495 359.028C642.751 358.467 636.966 358.378 631.209 358.757C628.128 358.959 617.153 358.804 615.644 361.564C619.741 364.331 628.73 363.99 633.659 364.491C639.79 365.115 645.946 365.481 652.106 365.585Z" fill="#1B1B1B"/>
<path d="M616.142 362.303C615.669 362.303 615.214 362.118 614.875 361.787C614.528 361.449 614.331 360.987 614.326 360.502L613.994 322.03C613.985 321.027 614.791 320.207 615.794 320.198L623.518 320.131C623.523 320.131 623.529 320.131 623.534 320.131C624.529 320.131 625.341 320.934 625.35 321.931C625.358 322.934 624.553 323.755 623.549 323.763L617.641 323.815L617.942 358.639L653.03 358.032L652.732 323.511L632.753 323.684C631.763 323.694 630.93 322.886 630.922 321.883C630.913 320.881 631.719 320.06 632.722 320.052L654.517 319.864C654.522 319.864 654.528 319.864 654.532 319.864C655.009 319.864 655.465 320.051 655.806 320.385C656.149 320.722 656.344 321.182 656.348 321.664L656.677 359.801C656.685 360.798 655.89 361.614 654.893 361.632L616.174 362.303C616.163 362.303 616.153 362.303 616.142 362.303Z" fill="#FF971D"/>
<path d="M640.154 350.156C639.581 350.156 639.02 349.886 638.667 349.385L630.644 337.986C630.067 337.166 630.264 336.033 631.084 335.456C631.905 334.879 633.036 335.075 633.614 335.896L640.642 345.879L671.461 326.333C672.306 325.798 673.431 326.046 673.967 326.894C674.504 327.741 674.254 328.864 673.407 329.4L641.125 349.873C640.824 350.065 640.487 350.156 640.154 350.156Z" fill="#FF971D"/>
<path d="M585.41 406.978C508.802 401.291 431.343 395.443 358.224 371.889C436.771 384.909 505.937 394.756 584.483 407.776L585.41 406.978Z" fill="#1B1B1B"/>
<path d="M445.13 309.96C450.85 307.457 456.569 304.955 462.289 302.452C461.756 309.091 462.686 315.497 462.843 322.065C460.415 321.561 458.105 315.933 455.773 314.06C453.752 312.437 447.934 308.733 445.13 309.96Z" fill="#1B1B1B"/>
<path d="M549.979 366.345C549.929 366.345 549.88 366.343 549.829 366.339C536.506 365.255 421.043 353.408 402.835 347.029C402.324 346.85 401.92 346.452 401.732 345.944C401.545 345.437 401.594 344.872 401.866 344.404C406.526 336.373 409.602 333.564 418.731 325.224L421.343 322.836C422.083 322.158 423.231 322.209 423.909 322.947C424.587 323.687 424.536 324.835 423.797 325.513L421.181 327.905C412.958 335.417 409.947 338.168 406.185 344.256C428.858 350.427 532.085 361.251 550.125 362.719C551.124 362.8 551.869 363.676 551.787 364.676C551.71 365.626 550.915 366.345 549.979 366.345Z" fill="#FF971D"/>
<path d="M428.687 321.527C428.075 320.734 428.222 319.593 429.015 318.979C438.099 311.965 448.355 306.247 459.501 301.985C460.439 301.628 461.488 302.096 461.846 303.032C462.205 303.97 461.735 305.02 460.799 305.378C449.983 309.513 440.038 315.056 431.235 321.855C430.438 322.47 429.298 322.317 428.687 321.527Z" fill="#FF971D"/>
<path d="M550.646 366.345C549.755 366.345 548.977 365.689 548.85 364.779C546.568 348.442 541.782 335.917 539.83 331.29C537.548 325.883 536.903 324.898 532.924 320.75C528.569 316.215 521.627 313.302 514.916 310.484C509.577 308.244 504.058 305.928 499.612 302.743C498.2 301.733 496.226 301.822 494.809 302.957C490.605 306.33 486.048 309.752 481.641 313.063C475.973 317.319 470.112 321.72 464.994 326.026C464.462 326.475 463.718 326.577 463.086 326.295C462.451 326.013 462.032 325.392 462.01 324.697C461.897 321.344 461.424 317.717 460.967 314.21C460.508 310.692 460.033 307.056 459.905 303.604C459.898 303.512 459.895 303.417 459.896 303.331C459.919 302.344 460.728 301.559 461.711 301.559C461.726 301.559 461.74 301.559 461.755 301.559C462.726 301.583 463.501 302.364 463.527 303.324C463.535 303.418 463.537 303.504 463.536 303.581C463.657 306.752 464.12 310.305 464.568 313.739C464.88 316.127 465.198 318.568 465.411 320.972C469.887 317.346 474.74 313.702 479.459 310.158C483.843 306.865 488.377 303.461 492.537 300.124C495.217 297.972 498.995 297.833 501.726 299.789C505.841 302.737 511.169 304.972 516.321 307.135C523.374 310.095 530.667 313.157 535.546 318.235C539.854 322.728 540.71 324.033 543.176 329.879C545.184 334.637 550.106 347.515 552.447 364.278C552.586 365.271 551.893 366.189 550.899 366.327C550.814 366.339 550.73 366.345 550.646 366.345Z" fill="#FF971D"/>
<path d="M461.702 305.558C461.648 305.558 461.593 305.555 461.539 305.551C460.54 305.462 459.802 304.58 459.891 303.581L461.079 290.251C461.168 289.25 462.066 288.504 463.049 288.603C464.048 288.691 464.786 289.573 464.697 290.572L463.509 303.903C463.425 304.847 462.631 305.558 461.702 305.558Z" fill="#FF971D"/>
<path d="M496.607 290.901C495.607 290.834 494.849 289.969 494.914 288.969C495.439 281.009 494.797 281.696 493.153 273.364C492.987 272.528 493.426 271.689 494.207 271.348C496.19 270.48 497.103 268.711 498.27 266.698C499.684 264.27 499.809 261.428 498.597 259.281C497.263 256.919 494.096 255.445 491.666 256.07C489.562 256.608 488.323 259.174 489.631 260.783C490.264 261.561 490.146 262.704 489.368 263.336C488.59 263.969 487.446 263.854 486.815 263.074C483.788 259.359 486.143 253.733 490.765 252.551C494.789 251.524 499.613 253.695 501.76 257.496C503.605 260.761 503.47 264.988 501.408 268.526C500.165 270.67 499.086 272.604 496.981 273.968C498.428 280.9 499.069 281.153 498.54 289.208C498.474 290.185 497.64 290.962 496.607 290.901Z" fill="#FF971D"/>
<path d="M459.379 292.393C455.74 292.394 452.139 291.254 449.454 288.924C445.642 285.613 444.303 280.816 443.497 276.558C440.908 262.894 440.811 252.412 443.172 241.505C443.385 240.526 444.344 239.901 445.331 240.115C446.311 240.326 446.934 241.293 446.721 242.274C444.47 252.674 444.573 262.726 447.065 275.882C447.791 279.71 448.871 283.607 451.835 286.181C456.176 289.95 464.384 289.436 468.404 285.143C469.09 284.41 470.237 284.372 470.971 285.059C471.702 285.744 471.74 286.893 471.055 287.626C468.108 290.774 463.717 292.393 459.379 292.393Z" fill="#FF971D"/>
<path d="M483.935 225.815L484.119 218.484C484.145 217.483 484.924 216.703 485.981 216.715C486.983 216.741 487.775 217.574 487.751 218.577L487.645 222.754C489.129 222.056 491.001 221.352 492.948 221.057C493.927 220.9 494.864 221.591 495.015 222.582C495.164 223.574 494.482 224.499 493.489 224.649C491.081 225.012 488.421 226.302 486.734 227.388C485.51 228.175 483.9 227.271 483.935 225.815Z" fill="#FF971D"/>
<path d="M455.757 275.352C454.688 275.352 453.61 275.005 452.841 274.372C451.118 272.956 450.97 270.825 450.899 269.801C450.623 265.859 450.838 261.885 451.537 257.988C451.715 256.999 452.661 256.351 453.645 256.52C454.632 256.698 455.289 257.641 455.112 258.628C454.465 262.231 454.267 265.904 454.522 269.549C454.591 270.534 454.719 271.214 455.149 271.568C455.29 271.685 455.701 271.749 455.953 271.707C456.378 270.96 457.291 270.602 458.13 270.896C459.077 271.228 459.574 272.265 459.242 273.211C458.907 274.162 458.091 274.881 457.001 275.185C456.6 275.298 456.18 275.352 455.757 275.352Z" fill="#FF971D"/>
<path d="M456.824 282.223C456.584 282.223 456.344 282.213 456.105 282.193C455.105 282.108 454.363 281.23 454.447 280.229C454.531 279.229 455.396 278.491 456.411 278.573C457.706 278.692 459.078 278.256 460.081 277.432C460.857 276.795 462.001 276.907 462.637 277.683C463.273 278.458 463.161 279.603 462.387 280.239C460.828 281.518 458.835 282.223 456.824 282.223Z" fill="#FF971D"/>
<path d="M508.193 335.355C508.139 335.355 508.084 335.353 508.03 335.348C507.031 335.26 506.293 334.378 506.382 333.379L507.57 320.048C507.659 319.048 508.556 318.315 509.54 318.4C510.539 318.489 511.276 319.371 511.188 320.37L509.999 333.7C509.916 334.645 509.122 335.355 508.193 335.355Z" fill="#FF971D"/>
<path d="M473.697 333.327C473.354 333.327 473.01 333.286 472.668 333.204C471.693 332.967 471.094 331.985 471.331 331.01C471.569 330.035 472.555 329.44 473.524 329.673C474.28 329.859 475.314 328.753 475.961 327.654L476.252 327.151C477.205 325.496 478.39 323.436 480.698 322.737C481.349 322.54 481.962 322.495 482.504 322.456C482.777 322.438 483.051 322.422 483.32 322.371C484.222 322.203 485.185 321.533 486.183 320.382C487.025 319.41 487.749 318.321 488.515 317.168C489.055 316.356 489.613 315.515 490.227 314.703C492.233 312.044 494.355 310.438 496.716 309.793C497.687 309.528 498.683 310.099 498.947 311.066C499.211 312.034 498.641 313.032 497.674 313.297C496.117 313.722 494.63 314.897 493.126 316.89C492.578 317.616 492.073 318.375 491.54 319.179C490.744 320.376 489.923 321.614 488.928 322.76C487.357 324.574 485.741 325.615 483.986 325.942C483.584 326.017 483.174 326.051 482.764 326.08C482.377 326.108 482.012 326.134 481.749 326.213C480.82 326.494 480.099 327.75 479.4 328.963L479.092 329.495C477.645 331.956 475.684 333.327 473.697 333.327Z" fill="#FF971D"/>
<path d="M587.052 407.927C586.961 407.927 586.869 407.919 586.777 407.905L360.547 373.241C359.665 373.107 359.013 372.351 359.007 371.458L358.165 240.302C358.159 239.299 358.967 238.48 359.969 238.474C359.973 238.474 359.978 238.474 359.981 238.474C360.979 238.474 361.791 239.279 361.797 240.278L362.629 369.886L585.222 403.993L584.352 270.026C584.346 269.024 585.154 268.205 586.156 268.198C586.16 268.198 586.165 268.198 586.168 268.198C587.166 268.198 587.977 269.003 587.984 270.002L588.869 406.099C588.875 407.11 588.055 407.927 587.052 407.927Z" fill="#FF971D"/>
<path d="M586.049 252.388C585.058 252.388 584.248 251.594 584.233 250.601L583.773 221.041C583.758 220.038 584.558 219.212 585.561 219.196C585.57 219.196 585.58 219.196 585.589 219.196C586.58 219.196 587.39 219.991 587.405 220.984L587.865 250.544C587.88 251.547 587.08 252.373 586.077 252.388C586.068 252.388 586.058 252.388 586.049 252.388Z" fill="#FF971D"/>
<path d="M580.523 161.666C580.052 161.666 579.582 161.489 579.227 161.134C578.518 160.425 578.518 159.276 579.227 158.566C579.533 158.26 579.922 158.086 580.323 158.044L581.138 157.907C581.14 157.907 581.141 157.907 581.144 157.905C582.361 157.683 583.327 158.569 583.327 159.685C583.327 160.591 582.665 161.341 581.799 161.478C581.78 161.482 581.761 161.485 581.741 161.488V161.489L580.836 161.642V161.64C580.733 161.658 580.628 161.666 580.523 161.666Z" fill="#FF971D"/>
<path d="M359.91 231.128C358.913 231.128 358.1 230.323 358.094 229.324L357.882 196.187C357.876 195.295 358.519 194.531 359.4 194.384L525.722 166.694C526.702 166.528 527.645 167.197 527.811 168.188C527.975 169.177 527.307 170.113 526.318 170.277L361.523 197.712L361.726 229.3C361.732 230.302 360.925 231.122 359.922 231.128C359.918 231.128 359.914 231.128 359.91 231.128Z" fill="#FF971D"/>
<path d="M411.564 204.834C413.842 204.809 415.667 202.891 415.641 200.552C415.615 198.212 413.747 196.336 411.469 196.362C409.191 196.387 407.365 198.305 407.391 200.644C407.418 202.984 409.286 204.86 411.564 204.834Z" fill="#FF971D"/>
<path d="M405.584 200.686C405.545 197.377 408.14 194.607 411.456 194.568C414.876 194.568 417.43 197.324 417.465 200.554C417.502 203.89 414.868 206.635 411.593 206.673C408.166 206.673 405.62 203.911 405.584 200.686ZM411.52 198.2C411.512 198.2 411.505 198.2 411.497 198.2C410.217 198.215 409.199 199.315 409.216 200.645V200.646C409.23 201.981 410.3 203.039 411.551 203.041C412.825 203.027 413.848 201.929 413.833 200.594C413.819 199.268 412.783 198.2 411.52 198.2Z" fill="#FF971D"/>
<path d="M431.152 201.715C433.43 201.69 435.255 199.772 435.229 197.433C435.203 195.093 433.335 193.217 431.057 193.243C428.779 193.268 426.953 195.186 426.979 197.525C427.006 199.865 428.874 201.741 431.152 201.715Z" fill="#FF971D"/>
<path d="M425.172 197.568C425.113 192.151 431.538 189.431 435.283 193.193C439.071 196.996 436.402 203.496 431.181 203.554C429.474 203.554 425.208 200.787 425.172 197.568ZM431.112 195.082C431.104 195.082 431.096 195.082 431.087 195.082C429.016 195.106 428.033 197.757 429.517 199.249C430.994 200.73 433.446 199.61 433.423 197.476C433.415 196.82 433.162 196.21 432.71 195.755C432.277 195.321 431.71 195.082 431.112 195.082Z" fill="#FF971D"/>
<path d="M391.754 208.637C394.032 208.611 395.857 206.694 395.831 204.354C395.805 202.015 393.937 200.139 391.659 200.164C389.381 200.19 387.555 202.107 387.581 204.447C387.608 206.786 389.476 208.662 391.754 208.637Z" fill="#FF971D"/>
<path d="M385.779 204.477C385.742 201.122 388.409 198.357 391.717 198.357C394.965 198.357 397.625 201.029 397.661 204.344C397.698 207.681 395.064 210.425 391.789 210.463C388.368 210.462 385.815 207.706 385.779 204.477ZM391.717 201.989C391.708 201.989 391.701 201.989 391.693 201.989C390.42 202.003 389.396 203.102 389.411 204.436C389.425 205.77 390.51 206.852 391.747 206.83C393.021 206.816 394.045 205.719 394.029 204.384C394.015 203.058 392.979 201.989 391.717 201.989Z" fill="#FF971D"/>
<path d="M372.984 267.537C371.99 267.537 371.18 266.738 371.168 265.741C371.158 264.739 371.962 263.917 372.964 263.905L415.238 263.432C415.245 263.432 415.252 263.432 415.258 263.432C416.252 263.432 417.062 264.231 417.074 265.228C417.084 266.231 416.28 267.052 415.278 267.064L373.004 267.537C372.997 267.537 372.99 267.537 372.984 267.537Z" fill="#FF971D"/>
<path d="M373.792 288.267C372.798 288.267 371.988 287.467 371.976 286.471C371.965 285.468 372.769 284.646 373.772 284.634L409.45 284.235C409.457 284.235 409.465 284.235 409.47 284.235C410.465 284.235 411.275 285.034 411.286 286.031C411.297 287.033 410.493 287.855 409.49 287.867L373.812 288.267C373.805 288.267 373.798 288.267 373.792 288.267Z" fill="#FF971D"/>
<path d="M382.919 308.234C381.925 308.234 381.115 307.435 381.103 306.439C381.093 305.436 381.897 304.614 382.899 304.602L394.959 304.468C394.966 304.468 394.973 304.468 394.979 304.468C395.973 304.468 396.783 305.267 396.795 306.264C396.806 307.266 396.002 308.088 394.999 308.1L382.94 308.234C382.932 308.234 382.925 308.234 382.919 308.234Z" fill="#FF971D"/>
<path d="M479.462 206.136C478.504 206.136 477.704 205.388 477.649 204.421C477.595 203.42 478.361 202.562 479.362 202.507L482.62 202.327C506.046 201.036 506.046 201.036 523.642 198.765C526.802 198.357 530.527 197.877 535.053 197.302C536.048 197.184 536.956 197.882 537.083 198.876C537.209 199.87 536.505 200.78 535.509 200.906C530.987 201.48 527.265 201.959 524.108 202.367C506.378 204.656 506.378 204.656 482.82 205.955L479.563 206.134C479.529 206.135 479.495 206.136 479.462 206.136Z" fill="#FF971D"/>
<path d="M568.31 202.301C567.799 202.301 567.3 202.085 566.95 201.689C558.167 191.763 549.442 181.955 540.719 172.145C531.994 162.334 523.27 152.524 514.484 142.596C514.096 142.158 513.944 141.561 514.072 140.992C514.201 140.423 514.595 139.95 515.133 139.72C536.735 130.537 559.582 125.534 583.04 124.851C583.498 124.816 583.933 124.992 584.277 125.288C602.184 140.674 621.081 157.222 637.962 175.445C638.381 175.899 638.542 176.534 638.387 177.132C638.234 177.73 637.786 178.209 637.199 178.403C625.767 182.182 614.24 186.303 603.091 190.289C591.916 194.284 580.36 198.416 568.88 202.209C568.693 202.272 568.5 202.301 568.31 202.301ZM518.887 142.09C527.103 151.368 535.268 160.55 543.434 169.732C551.896 179.247 560.359 188.762 568.876 198.384C579.941 194.708 591.082 190.725 601.868 186.868C612.165 183.188 622.784 179.392 633.369 175.849C617.279 158.753 599.433 143.105 582.444 128.503C560.529 129.224 539.162 133.792 518.887 142.09Z" fill="#FF971D"/>
<path d="M609.611 188.646C607.079 193.784 604.071 199.982 602.212 205.4C588.725 211.998 572.261 211.337 558.644 205.013C545.026 198.689 529.526 187.58 526.77 172.821C526.493 171.335 526.188 169.313 525.911 167.828C527.835 165.637 529.758 163.446 531.682 161.256C543.559 174.575 556.05 187.711 567.927 201.03C580.977 195.161 595.525 191.165 609.611 188.646Z" fill="#FF971D"/>
<path d="M581.342 211.895C573.452 211.895 565.388 210.148 557.878 206.66C549.109 202.587 528.349 191.17 524.985 173.155C524.845 172.402 524.697 171.511 524.549 170.621C524.406 169.757 524.263 168.894 524.126 168.161C524.023 167.613 524.179 167.048 524.547 166.63L530.318 160.057C530.66 159.667 531.155 159.442 531.675 159.44C531.677 159.44 531.68 159.44 531.682 159.44C532.2 159.44 532.693 159.661 533.037 160.048C538.958 166.686 545.138 173.395 551.114 179.883C556.821 186.08 562.714 192.477 568.4 198.833C580.33 193.606 594.079 189.578 609.291 186.858C609.964 186.741 610.649 187.007 611.061 187.554C611.473 188.101 611.542 188.834 611.239 189.448C608.515 194.977 605.708 200.807 603.929 205.99C603.773 206.445 603.442 206.82 603.009 207.031C596.379 210.276 588.941 211.895 581.342 211.895ZM527.854 168.368C527.945 168.898 528.039 169.463 528.133 170.028C528.276 170.892 528.419 171.755 528.556 172.488C531.61 188.843 551.149 199.531 559.408 203.366C572.923 209.642 588.315 209.9 600.746 204.088C602.228 199.933 604.273 195.471 606.391 191.095C592.365 193.837 579.691 197.73 568.671 202.686C567.948 203.009 567.098 202.831 566.572 202.238C560.634 195.58 554.437 188.851 548.442 182.344C542.914 176.342 537.213 170.153 531.694 163.994L527.854 168.368Z" fill="#FF971D"/>
<path d="M580.747 152.384C582.035 152.441 582.22 153.689 583.394 154.22C584.431 154.689 584.47 156.267 584.1 157.344C583.317 159.621 580.114 160.627 578.17 159.207C576.226 157.786 576.211 154.429 578.142 152.991" fill="#FF971D"/>
<path d="M580.288 161.677C579.124 161.678 578.005 161.335 577.099 160.674C575.722 159.667 574.895 157.962 574.887 156.113C574.879 154.264 575.689 152.553 577.057 151.535C577.684 151.067 578.518 151.067 579.136 151.471C579.474 150.903 580.131 150.537 580.827 150.569C582.326 150.636 583.133 151.54 583.617 152.08C583.853 152.346 583.995 152.499 584.142 152.565C586.142 153.471 586.499 155.951 585.818 157.934C585.264 159.547 583.879 160.84 582.116 161.395C581.511 161.585 580.894 161.677 580.288 161.677ZM579.715 153.899C579.596 154.107 579.432 154.296 579.226 154.448C578.78 154.781 578.517 155.397 578.519 156.097C578.522 156.798 578.792 157.412 579.242 157.741C579.689 158.069 580.354 158.142 581.028 157.929C581.696 157.72 582.202 157.28 582.383 156.754C582.514 156.373 582.514 155.983 582.475 155.793C581.722 155.411 581.256 154.89 580.908 154.502C580.798 154.378 580.646 154.207 580.584 154.166C580.262 154.152 579.966 154.056 579.715 153.899Z" fill="#FF971D"/>
<path d="M607.604 236.964C606.614 236.8 605.945 235.869 606.11 234.88C608.021 223.428 609.994 211.596 611.359 199.906C611.834 195.835 612.146 192.188 611.152 188.78C609.217 182.162 602.595 177.804 597.041 174.746C596.187 174.276 595.324 173.813 594.46 173.35C588.954 170.398 583.268 167.351 579.431 162.171C578.83 161.876 578.417 161.257 578.417 160.542C578.417 159.539 579.231 158.726 580.233 158.726L580.471 158.724C581.093 158.762 581.645 159.009 581.99 159.508C585.324 164.333 590.595 167.157 596.176 170.148C597.052 170.619 597.927 171.087 598.793 171.564C604.959 174.959 612.332 179.868 614.637 187.761C615.822 191.818 615.47 196.02 614.967 200.327C613.592 212.106 611.611 223.981 609.695 235.466C609.531 236.447 608.604 237.129 607.604 236.964Z" fill="#FF971D"/>
<path d="M601.211 242.62C600.299 243.717 599.339 244.92 599.123 246.468C598.906 248.017 599.864 249.891 601.131 249.69C602.064 249.542 602.652 248.438 603.244 247.54C603.835 246.642 604.829 245.809 605.651 246.376C606.858 247.208 606.192 249.729 607.015 251.234C607.416 251.966 608.293 252.386 608.867 251.862C609.741 251.064 609.209 248.955 610.17 248.325C610.738 247.952 611.448 248.418 611.865 249.026C612.281 249.634 612.555 250.395 613.055 250.899C614.226 252.08 616.336 250.876 616.354 249.017C616.894 249.915 617.809 250.917 618.574 250.322C619.001 249.99 619.126 249.259 618.989 248.659C618.598 246.943 615.504 244.385 613.584 242.114C612.122 240.386 611.487 238.055 610.199 236.347C607.059 232.185 603.458 239.917 601.211 242.62Z" fill="#FF971D"/>
<path d="M605.422 252.107C604.818 251 604.767 249.835 604.67 248.678C603.844 249.969 603.017 251.229 601.417 251.484C598.758 251.893 596.951 248.888 597.325 246.217C597.621 244.097 598.941 242.509 599.815 241.459C601.723 239.161 604.376 233.428 608.126 233.326C610.842 233.285 612.151 235.783 613.337 238.181C614.45 240.431 614.634 240.695 616.911 243.023C617.811 243.946 618.742 244.9 619.598 246.005C620.052 246.589 620.546 247.316 620.76 248.257C621.365 250.907 619.189 253.132 616.88 252.038C615.419 253.468 613.184 253.607 611.765 252.177C611.498 251.908 611.288 251.621 611.107 251.336C610.331 254.65 606.794 254.612 605.422 252.107ZM613.363 248C613.721 248.521 614.04 249.214 614.255 249.511C614.374 249.436 614.535 249.262 614.538 249C614.546 248.23 615.039 247.494 615.915 247.255C614.724 245.913 613.443 244.76 612.197 243.287C610.477 241.252 609.949 239.029 608.749 237.44C608.447 237.04 608.253 236.957 608.226 236.957C606.943 236.992 603.989 242.119 602.607 243.781C601.709 244.862 600.544 246.272 601.032 247.591C601.206 247.353 601.393 247.061 601.726 246.542C603.96 243.147 607.694 243.852 608.234 247.832C608.445 247.446 608.743 247.089 609.171 246.808C610.606 245.869 612.352 246.523 613.363 248Z" fill="#FF971D"/>
<path d="M483.272 223.862C477.874 222.45 470.268 225.697 467.228 222.32C462.713 217.323 457.49 212.475 449.906 210.841C442.038 209.154 433.805 211.646 428.931 217.19C423.549 223.325 423.059 232.847 427.815 238.867C430.809 242.659 435.623 244.787 440.07 244.703C443.88 244.652 447.669 243.069 450.453 240.454C451.867 241.814 453.811 243.056 454.443 243.232C458.67 244.433 458.927 244.157 461.219 244.15C465.861 244.127 470.811 244.307 475.948 243.725C476.891 250.618 481.676 257.969 486.463 262.99C487.73 264.316 489.979 263.118 489.543 261.31C489.199 259.884 489.989 257.826 491.269 256.816C492.51 255.834 494.39 255.626 495.744 256.316C496.78 256.843 498.043 256.277 498.33 255.145C499.008 252.473 499.71 249.711 500.051 246.844C501.53 234.706 494.897 226.917 483.272 223.862ZM443.121 223.813C439.523 223.882 436.078 226.406 434.928 229.815C434.71 230.463 434.009 230.785 433.394 230.575C432.761 230.362 432.42 229.675 432.634 229.041C434.099 224.696 438.491 221.479 443.076 221.392C443.762 221.369 444.296 221.912 444.309 222.58C444.322 223.248 443.79 223.8 443.121 223.813Z" fill="#FF971D"/>
<path d="M494.013 512.373C503.203 511.651 512.714 511.745 522.396 512.679C531.972 513.604 541.406 513.995 551.616 515.422C551.553 514.246 551.49 513.069 551.427 511.893C545.096 510.991 538.836 510.206 532.714 509.229C527.215 508.351 521.697 508.211 516.26 508.054C505.003 507.728 494.062 507.9 483.468 508.549C480.323 508.742 477.668 507.996 474.733 507.664C475.994 514.583 489.384 512.737 494.013 512.373Z" fill="#1B1B1B"/>
<path d="M564.001 515.417C570.936 516.479 578.043 517.229 585.283 517.654C589.542 517.904 594.094 517.996 597.826 516.205C601.591 514.398 603.957 510.017 601.649 506.773C602.131 509.692 599.717 512.451 596.679 513.724C593.661 514.988 590.164 515.078 586.813 515.019C577.622 514.857 572.001 513.957 563.354 511.948" fill="#1B1B1B"/>
<path d="M602.448 475.504C601.445 475.478 600.654 474.643 600.681 473.64L601.368 447.822C601.478 443.62 597.138 441.003 592.721 441.475C562.307 444.724 536.717 446.464 514.489 446.796C514.479 446.796 514.47 446.796 514.461 446.796C513.471 446.796 512.661 446 512.645 445.007C512.631 444.005 513.432 443.179 514.434 443.164C536.552 442.834 562.033 441.1 592.334 437.864C599.601 437.084 605.156 442.029 604.998 447.919L604.311 473.737C604.283 474.801 603.345 475.568 602.448 475.504Z" fill="#FF971D"/>
<path d="M550.613 512.898C542.743 512.006 535.273 511.826 522.91 511.209C505.791 510.359 499.565 510.538 499.686 510.54C498.687 510.54 497.875 509.733 497.87 508.732C497.865 507.729 498.675 506.913 499.678 506.908C505.061 506.886 511.108 506.887 532.332 508.023C538.453 508.297 544.782 508.581 551.022 509.289C552.019 509.402 552.735 510.301 552.622 511.298C552.506 512.311 551.586 513.013 550.613 512.898Z" fill="#FF971D"/>
<path d="M469.657 501.432L470.975 451.925C471.042 449.364 472.196 446.872 474.139 445.089C476.086 443.301 478.678 442.361 481.253 442.512C490.153 443.04 495.18 443.073 504.503 443.034C504.505 443.034 504.509 443.034 504.511 443.034C505.51 443.034 506.323 443.841 506.327 444.842C506.332 445.844 505.522 446.661 504.519 446.666C495.108 446.703 490.042 446.67 481.039 446.137C479.45 446.044 477.822 446.636 476.596 447.763C475.373 448.886 474.647 450.439 474.605 452.022L473.286 501.528C473.199 504.829 475.984 507.495 479.28 507.379C485.749 507.16 491.082 507.124 490.778 507.124C491.771 507.124 492.582 507.924 492.594 508.919C492.605 509.922 491.801 510.745 490.799 510.756C486.741 510.804 483.015 510.886 479.404 511.008C474.069 511.184 469.512 506.882 469.657 501.432Z" fill="#FF971D"/>
<path d="M591.886 516.565C589.712 516.565 579.994 515.168 563.429 513.775C562.43 513.69 561.687 512.811 561.771 511.812C561.856 510.812 562.756 510.09 563.734 510.155C572.997 510.935 581.649 511.877 590.81 512.875C595.883 513.425 599.707 510.172 599.805 506.518L600.898 483.186C600.944 482.185 601.744 481.395 602.797 481.458C603.798 481.504 604.573 482.355 604.526 483.357L603.433 506.651C603.284 512.28 598.07 516.565 591.886 516.565Z" fill="#FF971D"/>
<path d="M492.377 462.578L482.931 462.716L483.153 454.379L492.602 454.136L492.377 462.578Z" fill="#FF971D"/>
<path d="M482.931 464.532C482.446 464.532 481.98 464.338 481.638 463.993C481.291 463.64 481.102 463.162 481.116 462.667L481.338 454.331C481.363 453.365 482.141 452.589 483.106 452.565L492.554 452.321C493.101 452.27 493.533 452.501 493.887 452.852C494.238 453.204 494.431 453.687 494.417 454.184L494.192 462.627C494.167 463.6 493.377 464.38 492.403 464.395L482.956 464.532C482.948 464.532 482.939 464.532 482.931 464.532ZM484.923 456.15L484.796 460.873L490.608 460.789L490.735 456L484.923 456.15Z" fill="#FF971D"/>
<path d="M491.039 480.304L481.62 480.221L481.841 471.893L491.263 471.872L491.039 480.304Z" fill="#FF971D"/>
<path d="M491.039 482.12C491.034 482.12 491.028 482.12 491.024 482.12L481.604 482.037C481.116 482.032 480.651 481.832 480.313 481.483C479.975 481.131 479.792 480.66 479.805 480.173L480.027 471.844C480.053 470.862 480.856 470.079 481.838 470.077L491.26 470.055C491.791 470.084 492.22 470.252 492.563 470.603C492.906 470.954 493.093 471.429 493.078 471.92L492.854 480.352C492.828 481.337 492.023 482.12 491.039 482.12ZM483.484 478.422L489.271 478.472L489.398 473.692L483.61 473.705L483.484 478.422Z" fill="#FF971D"/>
<path d="M490.129 498.214L480.727 497.907L480.948 489.585L490.353 489.786L490.129 498.214Z" fill="#FF971D"/>
<path d="M490.13 500.031C490.109 500.031 490.091 500.031 490.07 500.029L480.668 499.722C479.67 499.69 478.885 498.857 478.912 497.859L479.134 489.537C479.16 488.535 480.035 487.743 480.988 487.769L490.392 487.971C490.875 487.982 491.334 488.184 491.668 488.534C492.001 488.884 492.181 489.352 492.168 489.836L491.944 498.263C491.932 498.747 491.727 499.204 491.376 499.536C491.038 499.854 490.592 500.031 490.13 500.031ZM482.59 496.151L488.363 496.339L488.49 491.563L482.716 491.439L482.59 496.151Z" fill="#FF971D"/>
<path d="M511.202 460.455C507.545 460.455 503.922 460.424 500.335 460.361C499.333 460.343 498.533 459.515 498.551 458.513C498.569 457.521 499.379 456.729 500.366 456.729C500.378 456.729 500.388 456.729 500.399 456.729C522.034 457.115 544.979 456.33 568.593 454.406C569.598 454.35 570.468 455.069 570.551 456.068C570.633 457.068 569.888 457.944 568.889 458.026C549.07 459.642 529.715 460.455 511.202 460.455Z" fill="#FF971D"/>
<path d="M503.693 477.59C502.694 477.59 501.882 476.783 501.877 475.783C501.872 474.78 502.682 473.963 503.685 473.958L550.2 473.738C550.202 473.738 550.206 473.738 550.208 473.738C551.207 473.738 552.02 474.546 552.024 475.546C552.029 476.549 551.22 477.366 550.217 477.37L503.701 477.59C503.699 477.59 503.695 477.59 503.693 477.59Z" fill="#FF971D"/>
<path d="M565.911 495.118C565.896 495.118 565.883 495.118 565.869 495.118L508.851 493.86C507.849 493.838 507.054 493.007 507.076 492.004C507.099 491.001 507.973 490.208 508.932 490.228L565.95 491.486C566.953 491.509 567.747 492.34 567.726 493.343C567.703 494.331 566.894 495.118 565.911 495.118Z" fill="#FF971D"/>
<path d="M634.566 546.583C640.645 539.638 640.357 528.957 633.3 522.006C634.376 532.885 625.579 543.337 613.385 545.931C605.912 547.52 599.446 545.565 592.473 543.448C589.223 549.535 605.339 554.104 610.239 554.645C619.421 555.659 629.137 552.785 634.566 546.583Z" fill="#1B1B1B"/>
<path d="M608.092 499.601C600.875 499.337 594.083 501.866 589.023 506.637C584.295 511.093 581.597 517.083 581.426 523.5C581.059 537.304 592.12 549.154 606.61 550.48C607.464 550.558 608.316 550.595 609.165 550.595C615.75 550.595 622.079 548.272 626.836 544.044C631.877 539.566 634.751 533.399 634.929 526.682C635.314 512.242 623.274 500.093 608.092 499.601ZM624.793 517.672L605.709 532.477C605.489 532.647 605.228 532.731 604.967 532.731C604.662 532.731 604.358 532.616 604.124 532.389L596.525 525.017C596.045 524.552 596.033 523.786 596.499 523.305C596.965 522.825 597.731 522.815 598.211 523.279L605.055 529.919L623.308 515.759C623.838 515.347 624.597 515.446 625.007 515.973C625.417 516.501 625.322 517.262 624.793 517.672Z" fill="#FF971D"/>
<path d="M647.975 201.956C647.728 201.956 647.476 201.905 647.235 201.797C646.32 201.388 645.909 200.315 646.318 199.398C652.504 185.562 650.786 168.668 641.943 156.359C641.358 155.544 641.543 154.411 642.358 153.825C643.17 153.241 644.306 153.424 644.891 154.24C654.476 167.579 656.337 185.886 649.634 200.881C649.332 201.556 648.669 201.956 647.975 201.956Z" fill="#FF971D"/>
<path d="M562.056 385.802C561.959 385.802 561.862 385.795 561.763 385.778C531.82 380.929 503.307 376.659 475.734 372.531C448.148 368.401 419.624 364.129 389.66 359.276C388.67 359.116 387.997 358.183 388.158 357.193C388.318 356.202 389.248 355.527 390.241 355.691C420.184 360.541 448.697 364.81 476.271 368.939C503.856 373.069 532.381 377.34 562.345 382.194C563.335 382.353 564.007 383.286 563.846 384.277C563.702 385.168 562.931 385.802 562.056 385.802Z" fill="#FF971D"/>
<path d="M374.297 363.747C373.294 363.711 372.513 362.868 372.549 361.865C372.635 359.524 372.737 357.619 372.839 355.715C372.939 353.828 373.039 351.941 373.125 349.622C373.163 348.621 373.954 347.85 375.007 347.875C376.01 347.911 376.791 348.754 376.755 349.757C376.668 352.098 376.567 354.003 376.465 355.907C376.364 357.794 376.265 359.681 376.179 362C376.14 363.034 375.252 363.795 374.297 363.747Z" fill="#FF971D"/>
<path d="M382.288 363.922C381.285 363.882 380.505 363.038 380.544 362.037C380.637 359.664 380.665 357.841 380.69 356.017C380.718 354.167 380.745 352.317 380.839 349.91C380.88 348.907 381.711 348.081 382.725 348.166C383.728 348.206 384.508 349.05 384.469 350.051C384.376 352.424 384.348 354.247 384.322 356.071C384.295 357.921 384.268 359.771 384.174 362.178C384.133 363.206 383.251 363.97 382.288 363.922Z" fill="#FF971D"/>
<path d="M133.872 378.943C133.518 384.521 132.933 390.632 128.967 394.569C127.53 395.995 125.714 397.051 124.531 398.692C123.376 400.294 122.934 402.39 123.343 404.322C123.517 405.144 123.838 405.943 123.87 406.784C123.902 407.624 123.55 408.562 122.771 408.88C121.813 409.272 120.701 408.492 120.35 407.518C119.999 406.544 120.193 405.469 120.39 404.453C121.628 398.074 122.866 391.696 124.104 385.317C124.392 383.837 124.709 382.291 125.662 381.122C127.042 379.431 129.37 378.953 131.398 378.145C133.426 377.338 135.533 375.612 135.233 373.451" fill="#1B1B1B"/>
<path d="M71.5547 491.143C71.4096 496.435 75.5828 500.842 80.8733 500.987L184.002 503.815C184.835 498.042 186.078 492.624 179.83 489.788C172.326 486.375 156.982 490.146 148.947 490.766C137.033 491.7 124.937 492.408 113.224 490.019C106.218 488.599 99.3759 486.045 93.7423 482.163L81.3983 481.825C76.1051 481.68 71.6998 485.85 71.5547 491.143Z" fill="#FF971D"/>
<path d="M183.952 505.63L80.8233 502.802C74.5287 502.631 69.5642 497.391 69.7404 491.094C69.9118 484.81 75.2038 479.813 81.4487 480.009L93.792 480.349C94.1432 480.358 94.4836 480.469 94.772 480.668C99.8288 484.151 106.334 486.77 113.585 488.239C124.958 490.56 136.733 489.9 148.806 488.956C156.869 488.329 172.492 484.457 180.581 488.134C187.693 491.363 186.77 497.558 185.954 503.025L185.799 504.074C185.659 505.048 184.768 505.688 183.952 505.63ZM73.37 491.193C73.2526 495.482 76.6312 499.055 80.9226 499.172L182.44 501.955C183.25 496.414 183.355 493.382 179.079 491.441C172.179 488.304 157.02 491.963 149.087 492.576C136.75 493.544 124.691 494.212 112.861 491.798C105.347 490.275 98.5485 487.57 93.1619 483.964L81.3495 483.639C76.8837 483.566 73.4831 487.043 73.37 491.193Z" fill="#FF971D"/>
<path d="M252.575 606.098C251.821 606.098 251.139 605.629 250.873 604.914C248.524 598.584 246.261 592.804 243.866 586.685C240.09 577.037 235.808 566.099 229.613 549.093C229.269 548.15 229.755 547.108 230.697 546.765C231.642 546.424 232.682 546.907 233.025 547.849C239.206 564.816 243.478 575.731 247.248 585.361C249.486 591.08 251.61 596.503 253.799 602.364C258.553 601.983 263.129 601.513 267.422 600.962C277.463 599.679 286.099 597.924 293.089 595.748C300.97 593.308 306.761 590.341 310.304 586.93C311.027 586.236 312.175 586.257 312.872 586.98C313.567 587.702 313.545 588.852 312.822 589.548C308.868 593.355 302.589 596.609 294.166 599.217C286.977 601.455 278.133 603.254 267.883 604.566C263.12 605.176 258.016 605.689 252.714 606.093C252.667 606.097 252.621 606.098 252.575 606.098Z" fill="#FF971D"/>
<path d="M186.6 298.263C186.189 295.156 182.071 293.764 179.164 294.936C176.258 296.108 174.365 298.877 172.648 301.498C170.427 304.887 168.207 308.276 165.986 311.665C163.947 314.777 161.822 318.506 163.082 322.007L186.6 298.263Z" fill="#1B1B1B"/>
<path d="M128.339 363.715C127.418 363.321 126.99 362.253 127.385 361.331L133.351 347.397C133.745 346.476 134.809 346.048 135.736 346.442C136.657 346.837 137.085 347.904 136.69 348.827L130.724 362.761C130.333 363.674 129.273 364.112 128.339 363.715Z" fill="#FF971D"/>
<path d="M206.65 368.639C209.686 368.16 212.806 369.133 215.837 368.626C218.761 368.136 221.306 366.327 223.742 364.565C228.161 361.368 232.687 358.06 235.675 353.393C223.708 357.158 211.742 360.922 199.775 364.687C197.689 365.343 195.423 366.138 194.266 368.068C192.859 370.417 193.56 378.79 196.833 376.189C198.079 375.199 198.725 373.085 200.017 371.934C201.849 370.302 204.264 369.016 206.65 368.639Z" fill="#1B1B1B"/>
<path d="M173.741 284.034C170.902 283.011 168.69 281.044 167.515 278.495C167.095 277.584 167.492 276.505 168.404 276.085C169.313 275.663 170.393 276.064 170.813 276.974C171.794 279.1 173.616 280.128 174.972 280.616C177.393 281.488 180.212 281.349 182.515 280.244C186.335 278.411 189.481 274.457 191.866 268.495C194.594 261.692 195.812 254.216 195.388 246.873C195.167 243.191 193.286 240.115 191.674 236.621C170.712 257.455 155.328 246.793 155.039 246.769C154.008 246.221 153.053 245.702 152.244 245.804C152.003 245.835 151.771 246.185 151.681 246.335C150.933 247.592 150.758 250.149 151.323 251.596C152.114 253.626 153.56 254.879 155.951 256.485C156.592 256.915 156.892 257.705 156.695 258.454C153.735 269.689 153.738 269.245 152.475 280.509C152.362 281.506 151.463 282.224 150.468 282.111C149.472 282 148.754 281.102 148.866 280.105C150.113 268.98 150.197 268.863 152.858 258.762C150.881 257.346 148.999 255.635 147.939 252.916C146.496 249.216 147.618 242.72 151.788 242.201C153.727 241.947 155.364 242.829 157.036 243.716C171.11 251.042 185.442 238.065 190.952 232.146C191.86 231.165 193.511 231.476 193.983 232.751C195.685 237.336 198.688 241.21 199.013 246.659C199.469 254.537 198.162 262.553 195.237 269.845C192.504 276.678 188.752 281.279 184.086 283.519C180.918 285.038 177.051 285.225 173.741 284.034Z" fill="#FF971D"/>
<path d="M162.693 274.782C158.73 272.619 157.111 270.136 157.104 266.215C157.101 265.212 157.913 264.398 158.916 264.396C158.917 264.396 158.918 264.396 158.92 264.396C159.921 264.396 160.733 265.207 160.736 266.208C160.74 268.491 161.295 269.881 164.434 271.595C165.315 272.075 165.639 273.179 165.157 274.059C164.675 274.942 163.569 275.261 162.693 274.782Z" fill="#FF971D"/>
<path d="M185.894 267.156C185.046 266.62 184.793 265.498 185.33 264.651C185.842 263.839 186.894 263.572 187.729 264.024C187.912 263.936 188.217 263.62 188.274 263.281C188.651 260.973 185.358 257.953 186.662 254.131C186.986 253.181 188.016 252.674 188.968 252.998C189.917 253.323 190.424 254.356 190.1 255.304C189.423 257.288 192.441 260.315 191.857 263.871C191.609 265.368 190.565 266.731 189.196 267.344C188.123 267.826 186.914 267.802 185.894 267.156Z" fill="#FF971D"/>
<path d="M181.337 272.64C180.566 271.999 180.461 270.854 181.102 270.083C181.744 269.312 182.887 269.205 183.659 269.847C184.107 270.219 184.746 270.355 185.284 270.191C186.246 269.903 187.256 270.45 187.544 271.412C187.831 272.373 187.285 273.385 186.324 273.672C184.649 274.174 182.729 273.799 181.337 272.64Z" fill="#FF971D"/>
<path d="M149.884 245.171C147.278 247.743 147.835 252.647 151.715 255.14C152.864 255.878 154.279 256.427 154.837 257.71C155.335 258.856 154.963 260.19 154.587 261.386C153.763 264.004 153.018 267.883 152.194 270.5C152.652 267.199 152.552 262.284 151.225 259.252C150.278 257.087 148.45 255.534 147.232 253.594C145.803 251.318 145.56 248.471 145.58 245.805C145.641 237.806 148.012 230.044 150.36 222.427C151.324 219.301 152.551 215.848 155.386 214.428C157.533 213.354 160.049 213.748 162.419 213.516C164.331 213.329 166.084 212.504 167.226 210.87C168.514 209.026 169.355 207.576 171.976 207.521C173.37 207.492 174.707 208.03 175.799 208.918C178.474 211.092 180.896 209.882 182.948 207.842C185.168 205.635 188.626 204.448 191.704 204.392C195.284 204.327 198.867 205.76 201.414 208.275C197.747 207.356 193.579 209.035 191.575 212.24C195.771 212.601 200.019 213.489 203.609 215.691C207.199 217.893 210.056 221.583 210.444 225.776C207.555 224.156 204.07 223.631 200.832 224.328C207.018 228.137 209.521 235.931 206.688 242.636C206.319 243.51 205.81 244.403 204.953 244.807C204.088 245.215 203.036 245.025 202.208 244.549C200.335 243.47 198.565 240.173 195.552 238.125C193.783 236.921 191.533 236.234 189.476 236.824C187.737 237.323 186.704 238.572 185.431 239.743C184.333 240.753 183.024 241.574 181.797 242.456C178.832 244.584 175.515 246.278 171.901 246.944C167.727 247.712 163.449 247.076 159.257 246.438C155.933 245.932 153.203 241.895 149.884 245.171Z" fill="#FF971D"/>
<path d="M151.796 272.272C150.875 272.064 150.266 271.186 150.396 270.251C150.834 267.095 150.687 262.553 149.561 259.98C148.797 258.232 146.897 256.474 145.694 254.56C143.945 251.775 143.743 248.411 143.763 245.791C143.827 237.456 146.266 229.544 148.625 221.892C149.703 218.396 151.14 214.523 154.572 212.805C158.785 210.695 163.39 213.192 165.738 209.83C167.416 207.408 168.706 205.774 171.938 205.705C173.701 205.669 175.466 206.308 176.944 207.507C177.947 208.324 179.221 208.986 181.667 206.554C184.067 204.168 187.901 202.645 191.672 202.576C195.798 202.529 199.78 204.108 202.69 206.983C203.998 208.275 202.768 210.48 200.972 210.037C199.155 209.582 197.139 209.948 195.501 210.916C199.075 211.545 202.061 212.61 204.558 214.143C208.962 216.844 211.838 221.13 212.252 225.609C212.388 227.06 210.834 228.073 209.557 227.36C208.323 226.668 206.958 226.206 205.554 225.988C209.932 231.006 210.711 237.776 208.361 243.342C207.939 244.343 207.207 245.752 205.727 246.449C204.399 247.076 202.745 246.954 201.3 246.121C199.054 244.83 197.328 241.526 194.532 239.627C193.002 238.586 191.302 238.19 189.976 238.569C188.979 238.855 188.261 239.548 187.35 240.424C185.523 242.185 184.847 242.501 182.855 243.931C179.322 246.467 175.748 248.081 172.23 248.73C167.717 249.558 163.077 248.854 158.984 248.233C156.604 247.87 154.703 246.227 153.178 245.807C152.625 245.653 152.049 245.586 151.16 246.463C150.291 247.322 149.909 248.815 150.208 250.182C150.502 251.517 151.433 252.799 152.696 253.612C153.865 254.363 155.675 255.082 156.503 256.985C157.3 258.82 156.685 260.767 156.318 261.931C155.542 264.394 154.767 268.372 153.926 271.045C153.684 271.815 152.722 272.477 151.796 272.272ZM152.508 257.745C152.8 258.281 153.028 258.819 153.227 259.393C153.355 258.543 153.176 258.213 152.508 257.745ZM172.016 209.337C170.305 209.373 170.001 210.12 168.715 211.91C167.353 213.859 165.18 215.071 162.595 215.324C160.206 215.556 157.875 215.212 156.199 216.052C154.047 217.13 152.993 220.056 152.096 222.962C149.845 230.265 147.517 237.815 147.399 245.511C147.723 244.905 148.129 244.352 148.609 243.879C150.238 242.27 152.102 241.744 154.145 242.306C156.166 242.866 157.995 244.41 159.531 244.642C168.231 245.967 173.328 246.299 180.736 240.98C182.846 239.475 183.24 239.336 184.831 237.809C185.9 236.779 187.11 235.614 188.975 235.079C191.358 234.396 194.126 234.958 196.573 236.623C199.759 238.788 201.673 242.147 203.114 242.974C203.496 243.195 203.944 243.275 204.177 243.165C204.358 243.08 204.65 242.796 205.015 241.931C207.477 236.098 205.348 229.243 199.879 225.874C198.489 225.018 198.854 222.895 200.45 222.552C202.844 222.036 205.373 222.115 207.749 222.746C206.747 220.604 204.976 218.659 202.659 217.238C199.783 215.476 196.212 214.462 191.419 214.05C190.071 213.936 189.315 212.428 190.035 211.277C191.341 209.192 193.386 207.648 195.689 206.841C191.231 205.321 186.574 206.798 184.228 209.13C180.121 213.216 176.753 212.033 174.654 210.327C173.758 209.599 172.746 209.299 172.016 209.337Z" fill="#FF971D"/>
<path d="M181.241 306.141C180.239 306.117 179.445 305.285 179.468 304.282C179.567 300.06 179.238 288.24 179.339 283.896C179.364 282.892 180.254 282.11 181.198 282.122C182.2 282.146 182.995 282.978 182.971 283.981C182.87 288.196 183.2 300.055 183.1 304.367C183.076 305.356 182.327 306.141 181.241 306.141Z" fill="#FF971D"/>
<path d="M126.82 381.687C126.019 381.687 125.319 381.649 124.667 381.57C119.502 380.991 118.447 377.612 114.897 376.782C112.083 376.149 108.625 377.408 105.162 377.754C98.8263 378.41 92.793 375.905 88.2529 373.653C87.0528 373.056 78.617 369.544 76.5244 369.15C75.1859 369.561 73.8417 368.306 74.2627 366.892C76.7597 358.523 79.9271 350.114 83.6774 341.901C84.0947 340.989 85.1706 340.585 86.0834 341.003C86.9961 341.419 87.3981 342.496 86.9808 343.409C83.5994 350.816 80.7016 358.382 78.3534 365.929C82.7114 367.059 89.7781 370.355 89.8679 370.4C94.2235 372.56 99.4067 374.697 104.796 374.141C108.147 373.804 111.942 372.401 115.706 373.241C117.815 373.735 119.083 374.637 120.821 375.949C122.443 377.172 123.126 377.742 125.086 377.962C126.601 378.142 128.4 378.015 129.904 377.916C130.508 377.877 131.093 377.838 131.658 377.813C138.984 364.547 143.119 354.169 145.861 342.215C146.084 341.237 147.062 340.623 148.036 340.851C149.014 341.074 149.625 342.05 149.401 343.026C146.514 355.609 142.148 366.462 134.328 380.486C134.008 381.06 133.404 381.416 132.748 381.418C131.97 381.42 131.082 381.479 130.142 381.541C129.428 381.588 128.692 381.636 127.956 381.664C127.555 381.679 127.177 381.687 126.82 381.687Z" fill="#FF971D"/>
<path d="M89.8255 335.256C89.544 335.256 89.2591 335.191 88.992 335.053C88.1017 334.592 87.753 333.496 88.2141 332.605C92.8829 323.583 98.4469 314.509 104.752 305.636C110.522 297.505 118.837 291.91 128.165 289.886C133.412 288.756 133.884 288.26 139.488 287.852C140.472 287.776 141.359 288.529 141.432 289.53C141.505 290.531 140.753 291.401 139.753 291.474C134.467 291.859 134.315 292.278 128.933 293.437C120.496 295.267 112.958 300.347 107.714 307.739C101.507 316.475 96.0315 325.403 91.4393 334.275C91.1165 334.899 90.4829 335.256 89.8255 335.256Z" fill="#FF971D"/>
<path d="M189.666 370.151C189.306 369.215 189.771 368.164 190.707 367.803C192.007 367.3 193.226 366.617 194.516 365.894C198.387 363.725 199.538 363.3 203.992 362.48C207.606 361.815 208.757 361.621 214.828 358.37C216.134 357.67 217.484 356.947 218.865 356.299C219.589 355.958 223.003 355.062 232.389 352.748C232.464 352.731 232.537 352.712 232.608 352.695C227.378 340.659 223.485 332.723 213.217 320.079C208.665 314.476 200.942 306.869 195.593 303.808C190.403 300.837 186.146 298.667 182.244 297.736C181.267 297.503 180.666 296.524 180.898 295.548C181.13 294.572 182.114 293.965 183.086 294.203C187.411 295.234 191.935 297.529 197.398 300.656C203.871 304.36 212.09 312.932 216.035 317.79C227.155 331.479 230.983 339.76 236.792 353.218C237.005 353.71 236.99 354.269 236.751 354.748C236.372 355.508 236.372 355.508 233.258 356.275C230.002 357.078 221.35 359.21 220.374 359.601C216.932 361.222 213.496 363.451 209.663 364.833C206.24 366.068 202.689 366.089 199.755 367.297C197.174 368.356 194.93 370.066 192.015 371.192C191.799 371.274 190.026 371.084 189.666 370.151Z" fill="#FF971D"/>
<path d="M198.726 395.057C195.54 385.441 193.89 379.35 191.661 368.987C191.451 368.007 192.075 367.041 193.055 366.83C194.042 366.621 195.001 367.246 195.213 368.223C197.409 378.44 199.036 384.442 202.174 393.915C202.49 394.867 201.973 395.894 201.021 396.21C200.077 396.522 199.044 396.016 198.726 395.057Z" fill="#FF971D"/>
<path d="M105.933 325.606C104.958 325.374 104.355 324.395 104.586 323.42C106.166 316.767 108.894 310.558 112.691 304.963C113.255 304.134 114.385 303.919 115.214 304.481C116.044 305.045 116.259 306.174 115.697 307.004C112.197 312.157 109.577 318.124 108.119 324.259C107.884 325.254 106.882 325.837 105.933 325.606Z" fill="#FF971D"/>
<path d="M118.447 317.564C118.397 317.564 118.348 317.562 118.299 317.558C117.299 317.478 116.554 316.602 116.634 315.603C116.937 311.845 118.808 308.192 121.639 305.828C122.408 305.185 123.553 305.289 124.196 306.059C124.839 306.829 124.736 307.973 123.966 308.616C121.868 310.367 120.48 313.089 120.254 315.893C120.178 316.844 119.383 317.564 118.447 317.564Z" fill="#FF971D"/>
<path d="M208.984 330.753C207.982 330.753 207.168 329.939 207.168 328.937C207.168 327.312 207.168 325.631 206.6 324.274C206.136 323.171 205.174 322.376 204.414 322.452C203.888 322.494 202.868 322.863 201.721 322.493C200.036 321.95 199.442 320.435 198.864 318.894C198.127 316.993 196.589 315.456 194.749 314.781C193.808 314.436 193.325 313.393 193.67 312.451C194.015 311.508 195.056 311.025 196 311.371C198.806 312.4 201.142 314.722 202.251 317.583C202.371 317.902 202.674 318.755 202.869 319.021C203.221 318.986 203.58 318.876 204.116 318.831C206.896 318.609 209.039 320.697 209.95 322.871C210.8 324.901 210.8 327.045 210.8 328.937C210.8 329.939 209.987 330.753 208.984 330.753Z" fill="#FF971D"/>
<path d="M295.895 325.763C294.913 325.57 293.959 326.217 293.77 327.203C292.093 335.911 288.753 356.586 283.4 371.039C284.672 370.865 285.932 371.539 286.707 372.584C292.213 357.849 295.798 335.896 297.335 327.889C297.526 326.904 296.88 325.952 295.895 325.763Z" fill="#FF971D"/>
<path d="M262.05 313.148C261.91 311.576 261.663 309.733 261.437 307.991C261 304.684 260.607 301.234 261.023 298.654C261.268 297.074 261.6 295.214 262.19 293.483C263.948 288.125 268.053 286.43 273.524 284.986C275.35 284.5 277.434 283.951 279.573 284.143C282.323 284.396 284.541 285.883 285.367 288.024C286.618 291.296 284.302 294.69 281.45 296.604C279.982 297.583 276.832 298.567 275.945 299.444C276.064 300.336 277.582 302.382 278.353 302.624C279.336 302.822 279.963 303.776 279.765 304.76C279.569 305.742 278.593 306.382 277.618 306.181C275.664 305.789 273.56 303.325 272.73 301.266C272.153 299.835 272.066 298.256 273.129 297.143C274.684 295.343 278.099 294.473 279.431 293.586C281.039 292.506 282.481 290.644 281.976 289.327C281.668 288.525 280.543 287.88 279.244 287.76C277.734 287.619 276.067 288.067 274.453 288.497C271.387 289.307 268.499 290.203 266.842 292.255C265.508 293.905 264.936 297.12 264.611 299.222C264.212 301.694 264.82 305.734 265.122 308.16C265.326 309.732 265.538 311.359 265.668 312.826C265.756 313.825 265.019 314.707 264.02 314.796C263.007 314.884 262.138 314.137 262.05 313.148Z" fill="#FF971D"/>
<path d="M297.118 318.732C296.129 318.574 295.453 317.642 295.612 316.651C297.161 306.982 297.404 304.502 298.432 294.059C298.657 291.773 299.005 289.535 298.348 288.003C297.958 287.098 296.877 286.261 295.951 286.521C295.155 286.74 294.581 287.648 294.308 288.424C292.822 292.625 292.712 293.103 292.373 296.265C292.288 297.066 292.479 297.949 292.994 298.214C293.129 298.283 293.455 298.203 293.615 298.091C293.64 297.175 294.352 296.406 295.287 296.331C296.265 296.267 297.161 296.997 297.241 297.997C297.471 300.868 293.895 302.76 291.336 301.446C289.511 300.509 288.498 298.35 288.756 295.944C289.167 292.094 289.446 291.277 290.882 287.22C291.629 285.092 293.163 283.522 294.987 283.019C297.887 282.219 300.666 284.198 301.686 286.571C302.737 289.024 302.31 291.731 302.046 294.414C301.035 304.687 300.764 307.448 299.199 317.226C299.04 318.216 298.109 318.889 297.118 318.732Z" fill="#FF971D"/>
<path d="M285.105 301.279C281.753 300.432 280.695 295.282 281.506 292.282C281.768 291.312 282.766 290.742 283.733 291.002C284.702 291.265 285.274 292.263 285.013 293.23C284.738 294.241 284.909 296.183 285.546 297.271C285.748 297.616 285.922 297.739 285.992 297.757C286.553 297.893 287.062 297.783 287.551 297.409C288.344 296.804 288.834 295.703 288.848 294.989C288.868 293.998 289.678 293.21 290.663 293.21C291.686 293.21 292.5 294.049 292.48 295.062C292.44 296.979 291.345 299.082 289.755 300.296C288.407 301.325 286.766 301.692 285.105 301.279Z" fill="#FF971D"/>
<path d="M266.517 291.317C265.514 291.28 264.731 290.438 264.768 289.436L265.819 260.7C265.874 259.178 265.942 257.283 266.783 255.528C267.642 253.734 269.585 251.95 272.012 251.95C272.053 251.95 272.094 251.951 272.135 251.951C274.015 251.997 275.808 253.158 276.815 254.98C277.576 256.358 277.805 257.834 277.991 259.352C278.794 265.91 279.186 272.738 279.479 279.306C280.786 278.808 282.153 278.539 283.087 278.473C284.813 278.35 286.193 278.685 287.414 279.552C289.399 279.147 292.065 279.694 293.039 280.151C294.034 280.617 296.864 282.496 296.805 284.925C296.78 285.928 295.937 286.701 294.944 286.696C293.972 286.671 293.198 285.889 293.174 284.929C293.024 284.555 292.183 283.761 291.497 283.439C290.833 283.127 288.598 282.889 288.008 283.135C287.289 283.653 286.398 283.52 285.766 282.898C285.066 282.21 284.484 282.012 283.346 282.096C281.838 282.203 279.711 282.974 279.204 283.596C278.728 284.181 277.938 284.413 277.224 284.174C276.507 283.935 276.013 283.279 275.981 282.526C275.674 275.111 275.298 267.247 274.385 259.793C274.239 258.599 274.083 257.545 273.636 256.736C273.326 256.174 272.713 255.598 272.045 255.583C272.037 255.581 272.027 255.581 272.018 255.581C271.312 255.581 270.475 256.227 270.058 257.097C269.544 258.168 269.496 259.522 269.449 260.831L268.398 289.568C268.36 290.601 267.472 291.367 266.517 291.317ZM293.173 284.836V284.837C293.173 284.837 293.173 284.837 293.173 284.836Z" fill="#FF971D"/>
<path d="M282.726 294.64C281.764 294.358 281.213 293.348 281.495 292.386C281.883 291.065 284.511 282.501 284.916 281.125C285.198 280.163 286.211 279.616 287.17 279.895C288.133 280.177 288.684 281.187 288.401 282.149C288.013 283.47 285.385 292.034 284.981 293.41C284.7 294.363 283.7 294.923 282.726 294.64Z" fill="#FF971D"/>
<path d="M247.314 361.745C246.188 361.322 245.763 359.932 246.502 358.946C247.029 357.921 250.884 348.989 253.701 341.363C257.012 332.409 258.958 325.578 260.118 321.914C260.724 319.996 261.352 318.013 261.787 316.089C262.274 313.925 262.131 311.096 261.363 307.679C261.142 306.701 261.756 305.729 262.735 305.509C263.714 305.282 264.686 305.904 264.905 306.882C266.494 313.93 265.559 316.766 263.581 323.009C259.766 335.109 258.142 340.959 251.566 356.455C251.091 357.576 250.62 358.67 250.259 359.478C249.576 361.006 248.925 362.343 247.314 361.745ZM248.587 358.342C248.297 358.234 248.016 358.206 247.756 358.238C248.035 358.207 248.32 358.242 248.587 358.342Z" fill="#FF971D"/>
<path d="M272.185 315.403C271.513 314.659 271.572 313.51 272.317 312.838C273.058 312.167 274.208 312.224 274.881 312.97C276.546 314.814 279.359 315.629 281.727 314.952C282.686 314.678 283.695 315.234 283.973 316.198C284.249 317.162 283.692 318.168 282.727 318.445C278.983 319.514 274.764 318.259 272.185 315.403Z" fill="#FF971D"/>
<path d="M311.563 590.055C310.837 590.055 310.151 589.616 309.872 588.899C300.872 565.802 291.817 540.269 282.956 513.011C275.956 491.441 267.629 440.446 237.877 440.305C236.873 440.301 236.065 439.484 236.07 438.481C236.074 437.481 236.887 436.673 237.886 436.673C237.888 436.673 237.892 436.673 237.894 436.673C270.7 436.83 279.093 489.348 286.411 511.889C295.249 539.081 304.28 564.548 313.255 587.579C313.619 588.515 313.157 589.567 312.223 589.931C312.006 590.016 311.783 590.055 311.563 590.055Z" fill="#FF971D"/>
<path d="M237.744 435.397C236.593 436.044 235.194 436.046 234.075 435.387C237.259 457.765 237.154 481.12 233.733 510.897C232.492 521.875 230.808 533.336 228.583 545.934C228.567 546.027 228.559 546.122 228.556 546.217L228.518 548.333C226.056 570.747 224.715 590.164 226.164 611.538C210.148 613.667 194.769 613.858 180.128 612.402C177.643 592.515 179.651 573.421 181.773 553.232C184.834 524.121 184.752 520.386 185.416 507.586C185.796 500.693 189.485 492.177 180.582 488.134C172.489 484.456 156.925 488.325 148.808 488.956C147.294 489.072 145.718 489.205 144.095 489.341C123.94 491.04 96.34 493.366 91.9738 472.547C91.2312 469.011 89.3278 456.962 88.181 442.296C88.103 441.297 87.2363 440.541 86.229 440.628C85.2299 440.706 84.4828 441.58 84.5608 442.58C85.7206 457.421 87.662 469.681 88.4198 473.293C93.4435 497.256 122.898 494.771 144.4 492.962C146.014 492.826 147.581 492.693 149.088 492.576C157.02 491.963 172.182 488.306 179.079 491.441C183.491 493.444 183.24 496.607 182.362 502.49C182.197 503.651 181.896 505.44 181.789 507.393C180.547 531.403 181.129 521.278 179.837 535.953C177.491 562.836 173.113 587.743 176.713 614.303C176.826 615.13 177.488 615.776 178.319 615.865C194.913 617.654 211.756 617.247 228.349 614.905C229.297 614.771 229.979 613.926 229.908 612.971C228.286 591.171 229.626 571.49 232.139 548.647C232.145 548.591 232.148 548.536 232.149 548.48L232.186 546.424C234.411 533.808 236.098 522.318 237.342 511.307C240.773 481.443 240.897 457.935 237.744 435.397Z" fill="#FF971D"/>
<path d="M163.606 323.239C154.343 312.644 145.369 302.128 136.069 291.491C135.408 290.735 135.485 289.588 136.241 288.929C136.996 288.267 138.145 288.347 138.803 289.1C147.844 299.441 156.254 309.291 165.197 319.54C172.994 313.171 179.7 305.232 184.655 296.488C185.149 295.616 186.259 295.31 187.129 295.804C188.002 296.298 188.309 297.406 187.814 298.278C182.344 307.931 174.833 316.643 166.091 323.475C165.33 324.069 164.238 323.964 163.606 323.239Z" fill="#FF971D"/>
<path d="M126.458 416.403C120.355 414.565 119.325 414.031 119.11 412.584C117.993 405.015 120.217 395.614 122.178 387.32C122.793 384.719 123.374 382.263 123.818 380.012C124.012 379.028 124.969 378.382 125.951 378.582C126.934 378.776 127.575 379.731 127.381 380.715C125.587 389.831 121.585 402.234 122.604 411.294C123.786 411.806 126.513 412.626 127.504 412.924C147.84 419.067 165.701 423.562 186.662 420.071C187.636 419.908 188.586 420.574 188.751 421.564C188.917 422.553 188.248 423.489 187.258 423.654C166.121 427.178 148.465 423.015 126.458 416.403Z" fill="#FF971D"/>
<path d="M165.979 453.528C130.623 451.586 135.183 450.529 100.534 444.664C92.0943 443.237 83.4208 441.278 78.2399 434.526C74.5535 429.72 73.6195 423.43 73.1938 417.911C71.9252 401.483 73.8441 384.485 78.7424 368.753C79.0415 367.796 80.0594 367.262 81.0171 367.559C81.9749 367.858 82.5092 368.876 82.2112 369.834C77.4477 385.129 75.5808 401.658 76.814 417.632C77.2196 422.87 78.0211 428.274 81.1224 432.315C85.5005 438.022 93.4113 439.777 101.139 441.084C136.018 446.985 131.012 447.971 166.178 449.901C167.179 449.956 167.946 450.812 167.892 451.814C167.84 452.763 167.053 453.567 165.979 453.528Z" fill="#FF971D"/>
<path d="M142.209 502.882C152.182 544.247 160.976 581.27 170.949 622.634L142.209 502.882Z" fill="#FF971D"/>
<path d="M170.948 624.451C170.128 624.451 169.384 623.893 169.184 623.06C164.202 602.397 159.514 582.818 154.828 563.239C150.131 543.625 145.435 524.01 140.444 503.308C140.208 502.332 140.808 501.352 141.783 501.117C142.766 500.887 143.74 501.482 143.974 502.457C153.696 542.769 162.633 580.393 172.715 622.209C172.992 623.358 172.118 624.451 170.948 624.451Z" fill="#FF971D"/>
<path d="M88.863 625.005C87.8865 624.78 87.2751 623.806 87.4999 622.829L115.172 502.291C115.395 501.316 116.364 500.7 117.348 500.928C118.325 501.153 118.936 502.127 118.712 503.105L91.0396 623.642C90.8126 624.633 89.8222 625.228 88.863 625.005Z" fill="#FF971D"/>
<path d="M100.238 582.221C99.2495 582.221 98.4396 581.428 98.4231 580.436C98.4066 579.432 99.2058 578.606 100.208 578.589L159.552 577.597C160.556 577.63 161.381 578.38 161.399 579.382C161.415 580.386 160.616 581.212 159.613 581.229L100.27 582.221C100.259 582.221 100.249 582.221 100.238 582.221Z" fill="#FF971D"/>
<path d="M223.534 421.132C223.095 420.23 223.47 419.143 224.371 418.703C232.524 414.73 240.096 412.526 239.964 409.846C239.863 407.804 237.343 407.398 235.506 408.201C227.727 411.615 217.072 416.29 208.663 420.567C207.769 421.023 206.676 420.665 206.221 419.771C205.766 418.877 206.123 417.783 207.017 417.33C215.519 413.006 226.227 408.307 234.047 404.875C238.342 402.991 243.366 405.041 243.591 409.667C243.876 415.431 235.888 417.131 225.962 421.969C225.052 422.409 223.97 422.027 223.534 421.132Z" fill="#FF971D"/>
<path d="M236.053 434.46C235.737 433.508 236.253 432.479 237.205 432.164C239.418 431.43 240.611 429.483 240.752 428.337C240.798 427.962 240.726 427.753 240.688 427.729C239.395 426.912 237.569 427.401 236.266 427.961C234.496 428.716 234.224 428.53 232.258 429.536C231.366 429.992 230.272 429.637 229.814 428.745C229.358 427.851 229.713 426.757 230.605 426.301C232.989 425.085 233.341 425.262 234.84 424.619C237.858 423.333 240.551 423.344 242.629 424.66C243.945 425.491 244.575 426.992 244.357 428.776C244.06 431.206 242.054 434.382 238.349 435.611C237.392 435.926 236.368 435.408 236.053 434.46Z" fill="#FF971D"/>
<path d="M236.849 425.815C236.555 424.855 237.094 423.84 238.053 423.546C242.835 422.084 242.343 417.424 237.941 417.125C236.941 417.058 236.184 416.191 236.253 415.191C236.32 414.189 237.185 413.411 238.187 413.502C246.581 414.072 247.764 424.372 239.117 427.02C238.17 427.31 237.146 426.783 236.849 425.815Z" fill="#FF971D"/>
<path d="M203.108 581.584C202.107 581.517 201.349 580.652 201.415 579.652L207.852 482.226C208 479.983 208.154 477.666 207.578 475.599C206.783 472.738 204.413 470.06 201.08 468.253C197.888 466.523 194.19 465.66 190.614 464.825C189.637 464.597 189.029 463.62 189.257 462.644C189.486 461.667 190.462 461.062 191.439 461.287C195.249 462.177 199.19 463.097 202.811 465.06C207.068 467.368 210.003 470.765 211.078 474.625C211.819 477.288 211.637 480.039 211.477 482.466L205.04 579.891C204.975 580.868 204.141 581.644 203.108 581.584Z" fill="#FF971D"/>
<path d="M219.48 555.473C219.067 555.473 218.652 555.333 218.311 555.047C217.544 554.401 217.445 553.256 218.09 552.487C218.695 551.77 218.402 550.283 218.05 549.163L217.894 548.671C217.366 547.028 216.709 544.984 217.379 542.921C218.013 540.97 219.485 539.89 220.243 538.674C221.715 536.313 220.674 532.895 219.582 529.876C219.32 529.152 219.544 528.341 220.139 527.853L221.408 526.815C222.186 526.181 223.329 526.294 223.964 527.07C224.599 527.847 224.484 528.99 223.709 529.626L223.427 529.856C224.411 532.744 225.519 537.077 223.326 540.596C222.935 541.222 222.487 541.747 222.053 542.256C220.549 544.017 220.328 544.373 221.351 547.559L221.517 548.075C222.424 550.967 222.206 553.238 220.871 554.826C220.512 555.253 219.997 555.473 219.48 555.473Z" fill="#FF971D"/>
<path d="M109.669 477.599C102.85 473.701 97.3733 467.586 94.2472 460.381C93.8476 459.461 94.2697 458.392 95.1907 457.993C96.1118 457.594 97.1794 458.016 97.579 458.936C100.395 465.426 105.329 470.934 111.471 474.444C112.342 474.942 112.644 476.052 112.147 476.922C111.647 477.797 110.536 478.093 109.669 477.599Z" fill="#FF971D"/>
<path d="M110.18 465.842L106.745 462.648C106.011 461.965 105.969 460.816 106.652 460.082C107.337 459.349 108.485 459.306 109.219 459.988L112.654 463.182C113.388 463.865 113.43 465.014 112.747 465.748C112.062 466.483 110.915 466.524 110.18 465.842Z" fill="#FF971D"/>
<path d="M230.709 468.106C229.716 467.965 229.026 467.045 229.166 466.052C229.346 464.799 227.676 463.433 226.476 463.853C224.943 464.399 223.518 462.797 224.239 461.337C224.785 460.235 224.299 458.604 223.239 457.98C222.375 457.471 222.088 456.357 222.597 455.493C223.106 454.63 224.219 454.34 225.084 454.851C226.969 455.961 228.076 458.112 228.095 460.264C230.832 460.854 233.188 463.563 232.763 466.563C232.634 467.47 231.721 468.245 230.709 468.106Z" fill="#FF971D"/>
<path d="M272.235 575.238L252.62 506.384C252.344 505.42 252.903 504.415 253.868 504.14C254.835 503.869 255.838 504.424 256.112 505.389L275.728 574.243C276.003 575.208 275.444 576.213 274.479 576.487C273.506 576.763 272.507 576.195 272.235 575.238Z" fill="#FF971D"/>
<path d="M291.322 559.985C288.699 558.314 287.305 555.017 287.93 551.971C288.145 550.928 288.59 549.931 288.504 549.36C288.369 548.46 286.762 547.54 285.588 546.333C281.055 541.677 283.464 533.791 280.069 530.272C279.374 529.55 279.394 528.4 280.117 527.704C280.838 527.01 281.987 527.028 282.685 527.751C287.174 532.407 284.8 540.315 288.191 543.799C289.385 545.023 291.706 546.241 292.096 548.818C292.331 550.38 291.683 551.742 291.489 552.7C291.164 554.281 291.916 556.056 293.276 556.923C294.121 557.462 294.369 558.584 293.83 559.431C293.292 560.274 292.171 560.526 291.322 559.985Z" fill="#FF971D"/>
<path d="M344.549 346.45C344.186 345.954 343.581 345.676 342.963 345.724C303.73 348.538 269.427 350.12 232.852 354.223C232.126 354.308 231.52 354.816 231.315 355.518C228.336 365.615 225.636 374.151 223.033 382.396C219.443 393.719 215.411 406.478 212.319 418.752C220.007 415.011 228.821 411.137 235.504 408.195C236.714 407.674 238.143 407.687 239.051 408.256C239.632 408.607 239.935 409.127 239.959 409.842C240.056 411.767 236.109 413.486 231.121 415.653C229.123 416.513 226.883 417.481 224.523 418.631C223.627 419.067 223.106 420.108 223.482 421.028C223.868 421.964 224.983 422.44 225.964 421.973C229.997 419.987 234.306 418.321 237.223 416.876C237.477 417.021 237.756 417.106 238.058 417.13C242.317 417.512 242.788 422.038 238.143 423.523C237.961 423.583 237.78 423.668 237.622 423.777C235.843 424.065 235.142 424.592 233.53 425.096C232.816 425.326 232.005 425.581 230.6 426.295C229.717 426.755 229.353 427.857 229.814 428.741C230.274 429.636 231.363 429.988 232.259 429.54C234.308 428.494 234.44 428.744 236.266 427.966C237.574 427.397 239.39 426.912 240.685 427.724C240.722 427.748 240.794 427.966 240.746 428.341C240.613 429.455 239.45 431.368 237.32 432.13C237.308 432.13 237.295 432.142 237.271 432.142C235.734 432.542 234.22 432.929 232.683 433.341C231.787 433.571 231.109 434.394 231.218 435.315C231.339 436.44 232.428 437.155 233.482 436.876C234.923 436.501 236.351 436.138 237.792 435.762C237.913 435.823 237.961 435.908 238.01 436.004C238.361 436.731 238.058 438.208 237.756 438.704C237.465 439.225 236.593 439.975 235.673 440.569C261.828 437.493 291.347 433.174 316.898 426.767C317.527 426.61 318.012 426.137 318.205 425.52C327.503 394.309 333.654 377.153 344.792 348.182C345.009 347.6 344.924 346.947 344.549 346.45ZM280.831 398.134C274.596 399.139 268.87 395.725 268.022 390.507C267.187 385.289 271.545 380.253 277.78 379.248C284.003 378.231 289.742 381.645 290.577 386.863C291.425 392.081 287.054 397.129 280.831 398.134ZM322.575 369.708L314.5 406.379C314.367 406.948 313.871 407.323 313.314 407.323C312.534 407.323 311.962 406.602 312.127 405.858L320.214 369.187C320.36 368.533 321.002 368.122 321.655 368.267C322.309 368.412 322.721 369.054 322.575 369.708Z" fill="#FF971D"/>
<path d="M240.879 440.557C239.813 442.385 236.992 444.213 235.358 444.83C227.051 447.968 219.373 449.084 219.232 449.225C203.311 452.304 180.945 453.535 166.119 453.535C165.127 453.535 164.315 452.736 164.303 451.731C164.291 450.726 165.102 449.903 166.107 449.903C185.795 449.649 215.782 448.343 234.087 441.428C234.559 441.246 235.116 440.944 235.661 440.569C235.673 440.581 235.673 440.569 235.673 440.569C236.593 439.975 237.465 439.225 237.755 438.704C238.159 438.042 238.414 436.074 237.792 435.762C236.351 436.137 234.922 436.501 233.482 436.876C232.428 437.154 231.339 436.44 231.218 435.314C231.109 434.394 231.787 433.571 232.683 433.341C234.22 432.929 235.733 432.542 237.271 432.142C237.295 432.142 237.307 432.13 237.319 432.13C238.449 431.879 240.284 432.641 241.121 434.128C241.182 434.225 241.242 434.334 241.291 434.443C242.159 436.255 241.844 438.842 240.879 440.557Z" fill="#FF971D"/>
<path d="M243.59 409.672C243.886 415.499 235.56 417.249 225.963 421.973C224.983 422.439 223.868 421.964 223.481 421.028C223.106 420.108 223.626 419.067 224.522 418.631C232.344 414.82 240.094 412.531 239.958 409.842C239.891 407.828 237.36 407.397 235.503 408.195C227.897 411.543 216.646 416.495 208.662 420.568C207.682 421.065 206.471 420.593 206.108 419.515C205.817 418.643 206.301 417.699 207.113 417.275C215.739 412.909 225.835 408.473 234.05 404.878C236.375 403.849 239.026 403.958 240.963 405.168C242.561 406.149 243.494 407.747 243.59 409.672Z" fill="#FF971D"/>
<path d="M216.762 413.801C216.4 415.497 214.324 415.925 213.42 414.515C213.179 414.094 213.073 413.625 213.178 413.159C213.541 411.476 213.808 410.084 213.614 408.788C213.529 408.171 211.919 407.88 211.423 407.808C206.495 407.069 202.27 408.377 198.88 411.706C196.858 413.68 194.945 416.307 194.001 418.377C192.657 421.307 191.374 422.881 187.984 423.559C186.209 423.938 171.933 425.193 168.928 424.83C167.935 424.697 167.233 423.777 167.366 422.784C167.499 421.791 168.407 421.101 169.4 421.222C171.555 421.513 182.451 420.556 185.962 420.193C189.049 419.878 189.582 419.321 190.696 416.876C192.052 413.897 194.497 410.919 196.337 409.103C200.527 404.999 205.938 403.304 211.968 404.212C214.475 404.587 216.864 405.723 217.21 408.256C217.444 409.857 217.045 412.315 216.762 413.801Z" fill="#FF971D"/>
<path d="M244.353 428.777C244.148 430.508 243.07 432.615 241.121 434.128C240.25 434.815 239.347 435.284 238.348 435.617C237.389 435.916 236.366 435.406 236.048 434.455C235.733 433.511 236.254 432.481 237.21 432.167C237.234 432.154 237.247 432.154 237.271 432.142C237.295 432.142 237.307 432.13 237.319 432.13C239.45 431.368 240.612 429.455 240.746 428.341C240.794 427.966 240.721 427.748 240.685 427.724C239.389 426.912 237.573 427.397 236.266 427.966C234.439 428.744 234.287 428.504 232.259 429.54C231.363 429.988 230.273 429.636 229.813 428.741C229.353 427.857 229.716 426.755 230.6 426.295C232.811 425.171 233.335 425.254 234.837 424.624C237.491 423.482 240.606 423.126 242.924 424.866C244.039 425.726 244.559 427.13 244.353 428.777Z" fill="#FF971D"/>
<path d="M241.181 426.149C240.569 426.492 239.28 427.094 238.578 427.094C236.557 427.094 235.994 424.238 238.142 423.522C242.789 422.037 242.316 417.512 238.058 417.13C237.755 417.106 237.476 417.021 237.222 416.876C235.445 415.925 236.316 413.335 238.191 413.498C242.247 413.81 244.687 416.369 245.043 419.346C245.334 421.905 243.965 424.608 241.181 426.149Z" fill="#FF971D"/>
<path d="M244.793 631.213C242.939 630.29 240.966 629.791 239.056 629.31C238.191 629.091 237.324 628.874 236.476 628.614C225.039 625.113 217.733 620.628 215.903 615.977C215.623 615.275 215.375 614.628 215.16 614.035C214.82 613.091 213.772 612.602 212.835 612.946C212.095 613.214 211.643 613.912 211.643 614.655L187.324 614.679L187.323 614.648C187.305 613.656 186.495 612.864 185.508 612.864C185.496 612.864 185.486 612.864 185.475 612.864C184.473 612.882 183.673 613.71 183.691 614.712C183.772 619.471 183.893 627.377 184.137 633.587C184.322 637.747 184.774 642.054 187.996 644.982C191.003 647.712 195.261 648.124 199.361 648.312C238.081 650.095 236.508 650.047 238.006 650.047C239.833 650.047 241.733 649.895 243.566 649.293C246.392 648.362 250.782 644.524 251.055 641.144C251.37 637.635 247.875 632.75 244.793 631.213ZM232.614 638.283C232.182 638.792 231.418 638.855 230.908 638.421C225.908 634.172 219.945 630.929 213.666 629.043C213.026 628.85 212.663 628.175 212.855 627.534C213.048 626.896 213.713 626.533 214.364 626.723C220.96 628.706 227.222 632.112 232.475 636.576C232.985 637.009 233.048 637.773 232.614 638.283Z" fill="#FF971D"/>
<path d="M329.39 616.18C327.423 615.489 325.402 615.236 323.449 614.991C322.558 614.88 321.667 614.77 320.783 614.613C308.968 612.57 301.095 609.018 298.621 604.623C296.684 601.137 295.99 599.509 295.391 597.051C295.153 596.076 294.173 595.477 293.196 595.717C292.245 595.949 291.66 596.891 291.853 597.842L269.431 602.406C269.24 601.461 268.354 600.83 267.377 600.972C266.386 601.127 265.709 602.055 265.863 603.047L268.531 619.913C268.879 622.033 269.239 624.076 269.593 626.023C270.353 630.132 271.395 634.35 274.969 636.837C278.337 639.19 282.614 639.061 286.689 638.732L322.481 635.955C325.204 635.736 328.019 635.509 330.616 634.266C333.299 633.001 337.14 628.64 336.952 625.211C336.765 621.696 332.634 617.306 329.39 616.18ZM283.323 628.623C283.124 628.746 282.903 628.805 282.685 628.805C282.28 628.805 281.885 628.602 281.656 628.233C278.712 623.486 276.816 618.045 276.178 612.498C276.101 611.833 276.578 611.232 277.242 611.157C277.914 611.079 278.507 611.558 278.583 612.221C279.182 617.415 280.956 622.51 283.713 626.956C284.065 627.525 283.89 628.271 283.323 628.623ZM326.853 628.942C326.66 629.056 326.449 629.109 326.24 629.109C325.825 629.109 325.421 628.896 325.195 628.512C323.432 625.512 320.361 623.226 316.981 622.396C316.331 622.237 315.934 621.581 316.094 620.932C316.254 620.283 316.914 619.883 317.558 620.045C321.619 621.042 325.163 623.681 327.283 627.285C327.621 627.862 327.43 628.603 326.853 628.942Z" fill="#FF971D"/>
<path d="M346.673 652.178H86.3353C85.3327 652.178 84.5193 651.365 84.5193 650.362C84.5193 649.36 85.3327 648.546 86.3353 648.546H346.673C347.676 648.546 348.489 649.36 348.489 650.362C348.489 651.365 347.676 652.178 346.673 652.178Z" fill="#FF971D"/>
<path d="M293.583 201.135C302.643 197.406 310.758 191.709 319.613 187.515C335.809 179.845 354.441 177.423 372.06 180.699C370.586 178.892 369.113 177.085 367.639 175.279C365.411 177.59 361.655 177.597 358.612 176.574C355.57 175.551 352.856 173.696 349.8 172.713C341.477 170.036 332.656 174.223 324.918 178.295C308.364 187.007 291.778 196.669 274.856 204.289C280.877 205.75 288.026 203.422 293.583 201.135Z" fill="#1B1B1B"/>
<path d="M380.887 149.019C384.701 146.491 388.016 141.684 386.019 137.567C388.219 142.102 362.765 156.839 359.849 158.845C361.812 166.862 363.538 167.877 367.608 161.153C371.397 154.894 374.825 153.036 380.887 149.019Z" fill="#1B1B1B"/>
<path d="M262.925 200.069L244.198 162.182C241.69 157.104 243.777 150.931 248.849 148.42L356.158 95.3743C361.237 92.8773 367.405 94.9653 369.909 100.037L372.573 105.436C373.017 106.335 372.647 107.424 371.749 107.868C370.847 108.312 369.759 107.942 369.317 107.044L366.653 101.645C365.034 98.3655 361.048 97.0178 357.766 98.6316L250.46 151.676C247.182 153.298 245.833 157.289 247.454 160.573L266.181 198.46C267.799 201.738 271.79 203.088 275.081 201.473L315.783 181.346C316.681 180.902 317.771 181.27 318.216 182.169C318.661 183.068 318.292 184.157 317.394 184.602L276.687 204.732C271.607 207.228 265.429 205.143 262.925 200.069Z" fill="#FF971D"/>
<path d="M370.924 181.762C370.729 181.762 370.532 181.731 370.342 181.666L342.435 172.222L324.883 180.898C323.983 181.34 322.895 180.972 322.45 180.075C322.006 179.175 322.375 178.086 323.273 177.642L341.499 168.633C341.932 168.419 342.43 168.387 342.886 168.54L367.353 176.82L358.519 158.946C358.108 158.115 358.389 157.107 359.171 156.608C363.892 153.602 368.481 150.629 373.073 147.655C375.531 146.063 377.989 144.471 380.468 142.872C383.31 141.037 384.324 137.376 382.822 134.357L372.603 113.693C372.159 112.793 372.528 111.704 373.426 111.26C374.324 110.815 375.414 111.183 375.86 112.083L386.076 132.743C388.4 137.416 386.836 143.084 382.437 145.924C379.958 147.522 377.503 149.112 375.049 150.703C370.895 153.394 366.744 156.082 362.496 158.796L372.551 179.141C372.877 179.799 372.774 180.589 372.29 181.142C371.939 181.543 371.438 181.762 370.924 181.762Z" fill="#FF971D"/>
<path d="M302.87 146.962C302.386 146.084 302.708 144.979 303.588 144.497C319.293 135.869 335.62 127.956 352.112 120.976C353.04 120.586 354.102 121.02 354.493 121.941C354.883 122.865 354.452 123.931 353.528 124.322C337.149 131.254 320.934 139.113 305.335 147.68C304.461 148.162 303.353 147.844 302.87 146.962Z" fill="#FF971D"/>
<path d="M314.86 160.026C314.42 159.126 314.793 158.038 315.694 157.598L349.978 140.857C350.88 140.416 351.967 140.79 352.406 141.691C352.846 142.592 352.473 143.68 351.572 144.12L317.288 160.861C316.387 161.301 315.299 160.927 314.86 160.026Z" fill="#FF971D"/>
<path d="M275.376 165.759C278.628 164.412 280.173 160.683 278.825 157.43C277.478 154.178 273.749 152.634 270.497 153.981C267.244 155.328 265.7 159.057 267.047 162.309C268.394 165.562 272.123 167.106 275.376 165.759Z" fill="#FF971D"/>
<path d="M285.006 185.033C288.526 185.033 291.38 182.179 291.38 178.658C291.38 175.138 288.526 172.284 285.006 172.284C281.485 172.284 278.631 175.138 278.631 178.658C278.631 182.179 281.485 185.033 285.006 185.033Z" fill="#FF971D"/>
<path d="M529.987 442.839C528.985 442.839 528.171 442.025 528.171 441.023V430.85H506.426C505.424 430.85 504.61 430.037 504.61 429.034V394.04C504.61 393.038 505.424 392.224 506.426 392.224C507.429 392.224 508.242 393.038 508.242 394.04V427.218H529.987C530.99 427.218 531.803 428.032 531.803 429.034V441.023C531.803 442.025 530.99 442.839 529.987 442.839Z" fill="#FF971D"/>
<path d="M382.073 492.029C381.07 492.029 380.257 491.215 380.257 490.213V375.701C380.257 374.698 381.07 373.885 382.073 373.885C383.075 373.885 383.889 374.698 383.889 375.701V490.213C383.889 491.215 383.075 492.029 382.073 492.029Z" fill="#FF971D"/>
<path d="M421.771 474.443C421.397 474.099 420.905 473.929 420.39 473.969L352.398 479.636C351.457 479.715 350.733 480.501 350.733 481.446V522.24C350.733 523.185 351.457 523.971 352.398 524.05L420.39 529.716C420.441 529.719 420.492 529.722 420.541 529.722C420.995 529.722 421.434 529.551 421.771 529.241C422.145 528.897 422.357 528.414 422.357 527.905V475.779C422.358 475.271 422.145 474.787 421.771 474.443ZM361.627 494.015C361.627 493.346 362.169 492.804 362.838 492.804H402.037C402.707 492.804 403.248 493.346 403.248 494.015C403.248 494.684 402.707 495.226 402.037 495.226H362.838C362.169 495.226 361.627 494.684 361.627 494.015ZM402.742 510.658H376.928C376.259 510.658 375.718 510.117 375.718 509.448C375.718 508.779 376.259 508.237 376.928 508.237H402.742C403.411 508.237 403.952 508.779 403.952 509.448C403.953 510.117 403.411 510.658 402.742 510.658Z" fill="#FF971D"/>
<path d="M594.657 581.265C594.236 580.354 594.634 579.275 595.544 578.855C621.454 566.888 643.618 546.705 657.952 522.022C658.456 521.154 659.569 520.859 660.434 521.363C661.301 521.867 661.596 522.978 661.092 523.845C646.387 549.167 623.649 569.875 597.067 582.151C596.176 582.567 595.084 582.19 594.657 581.265Z" fill="#FF971D"/>
<path d="M632.684 583.935C632.043 583.935 631.421 583.595 631.091 582.993C630.608 582.115 630.929 581.01 631.809 580.528C642.203 574.82 651.037 566.499 657.357 556.466C657.893 555.618 659.013 555.362 659.863 555.897C660.71 556.432 660.966 557.553 660.431 558.402C653.782 568.955 644.489 577.707 633.556 583.711C633.28 583.863 632.979 583.935 632.684 583.935Z" fill="#FF971D"/>
<path d="M409.794 97.959C409.407 97.959 409.015 97.8348 408.684 97.5795C391.064 83.9546 369.097 76.454 346.825 76.454C346.795 76.454 346.767 76.454 346.736 76.454H346.735C345.732 76.454 344.92 75.6417 344.919 74.6392C344.918 73.6071 345.776 72.8255 346.825 72.8219C369.899 72.8219 392.652 80.592 410.907 94.7065C411.7 95.3201 411.846 96.4598 411.232 97.2544C410.874 97.7165 410.337 97.959 409.794 97.959Z" fill="#FF971D"/>
<path d="M163.247 161.865C163.229 156.807 159.351 152.675 154.602 152.654L59.5465 152.253C59.5335 152.253 59.5217 152.253 59.5098 152.253C57.1771 152.253 54.9887 153.222 53.3453 154.986C51.7303 156.72 50.8352 159.019 50.8246 161.463L50.7501 179.186C50.7276 184.285 54.6056 188.449 59.394 188.471L119.812 188.726L146.523 205.357C146.816 205.54 147.149 205.632 147.483 205.632C147.785 205.632 148.087 205.556 148.361 205.405C148.937 205.087 149.296 204.481 149.299 203.824L149.363 188.645L154.581 188.668C154.592 188.668 154.604 188.668 154.614 188.668C156.832 188.668 158.942 187.78 160.559 186.165C162.311 184.414 163.311 181.942 163.303 179.383L163.247 161.865ZM123.28 177.923C123.279 177.923 123.276 177.923 123.275 177.923L101.535 177.831C100.866 177.829 100.327 177.284 100.329 176.616C100.331 175.949 100.873 175.41 101.54 175.41C101.541 175.41 101.543 175.41 101.544 175.41L123.285 175.502C123.954 175.504 124.493 176.049 124.491 176.717C124.488 177.384 123.947 177.923 123.28 177.923ZM143.33 165.835C143.328 165.835 143.326 165.835 143.325 165.835L80.6862 165.57C80.017 165.568 79.4779 165.023 79.4802 164.355C79.4826 163.688 80.0241 163.149 80.6909 163.149C80.692 163.149 80.6943 163.149 80.6956 163.149L143.334 163.414C144.003 163.416 144.542 163.961 144.54 164.629C144.538 165.296 143.996 165.835 143.33 165.835Z" fill="#FF971D"/>
</svg>
